<svg xmlns="http://www.w3.org/2000/svg" width="2710" height="413"
     style="shape-rendering:geometricPrecision;text-rendering:geometricPrecision;image-rendering:optimizeQuality;fill-rule:evenodd;clip-rule:evenodd">
    <path fill="#c3c3c3"
          d="M2228.5 78.5c.65 14.0982 1.32 28.098 2 42h42v211h-84c.33-27.907 0-55.741-1-83.5-42.33-.5-84.67-.667-127-.5v84h-84v-211h42v-42c11.08-.5659 22.08-.5659 33 0 3.45.0787 6.79-.4213 10-1.5-1.33-13.6667-1.33-27.3333 0-41 42-.5 84-.6667 126-.5v42c13.5.6293 27.17.9627 41 1Zm-83 0v42h42v84c-42.17.332-84.17-.001-126-1-.1-27.138-.1-54.805 0-83 13.67.167 27.34 0 41-.5.99-13.754 1.32-27.5877 1-41.5h42Z"/>
    <path fill="#c3c3c3"
          d="M661.5 78.5c.327 42.072-.006 84.072-1 126-13.16.831-26.494 1.331-40 1.5-.427 12.521-.427 24.521 0 36-.322 2.654-1.655 4.488-4 5.5-5.4-.687-10.9-1.354-16.5-2-2.957 1.577-5.624 1.244-8-1-4.858 1.914-10.025 2.581-15.5 2 1.393-.491 2.393-1.991 3-4.5-.667-1-1.333-2-2-3 1.666-.997 3.166-2.497 4.5-4.5 1.077 2.783 2.744 5.117 5 7 1.033-2.717.2-4.551-2.5-5.5 2.297-1.16 1.964-2.16-1-3 1.42-2.209 3.087-4.209 5-6-3.609-2.215-4.275-1.882-2 1-1.575-.379-3.075-.212-4.5.5l-1.5-1.5c3.441-1.712 3.608-3.545.5-5.5-.333.667-.667 1.333-1 2-2.123-2.357-1.956-4.524.5-6.5-.405-.945-1.072-1.612-2-2 1.333-.333 2.667-.667 4-1 .608-2.184-.059-4.184-2-6 1.372-1.242 2.372-2.742 3-4.5-1.029.204-2.029-.296-3-1.5.958-1.147.625-2.147-1-3 2.856-1.429 3.356-3.263 1.5-5.5-.333 1-.667 2-1 3-.198-1.882-.698-3.548-1.5-5 .332-37.837-.002-75.504-1-113-42-.0055-84-.0055-126 0-1 41.661-1.333 83.328-1 125-.832-31.831-1.332-63.831-1.5-96-.333 1-.667 2-1 3-.741-1.141-1.575-1.141-2.5 0-2.123-2.643-3.456-5.309-4-8-.692.525-1.192 1.192-1.5 2-2-1.333-4-1.333-6 0-2-.667-3.333-2-4-4-.333.667-.667 1.333-1 2-2.175-2.492-4.175-4.4924-6-6-1.229 2.4468-2.729 2.6135-4.5.5 1.363-2.1293 1.029-2.6293-1-1.5-2.496-3.7878-4.163-3.6211-5 .5.475 1.7633 1.142 3.43 2 5-3.825 3.206-3.492 6.206 1 9-.525.692-1.192 1.192-2 1.5-.333-.667-.667-1.333-1-2-3.667-.328-7.667.339-12 2 .406 1.609.406 2.943 0 4-.929-1.189-1.262-2.522-1-4-1.603.188-2.937-.312-4-1.5.667-.333 1.333-.667 2-1-1.009-1.87-1.176-4.037-.5-6.5-1.011.837-2.178 1.17-3.5 1-.193-3.949-.693-3.949-1.5 0-1.377-2.254-2.877-4.4205-4.5-6.5 3.36-2.4287 3.693-5.0954 1-8 1.431-.4652 2.597-1.2986 3.5-2.5.333.3333.667.6667 1 1 1.836-2.4618 1.003-3.9618-2.5-4.5 2.398-.3744 4.731-.3744 7 0-2.123-1.1937-4.457-1.8603-7-2 1.076-1.7261 1.243-3.5594.5-5.5-1.666.8402-1.833.3402-.5-1.5-.547-.9246-1.213-1.7579-2-2.5-.223 1.4667-.556 2.9667-1 4.5-2.499-.1174-5.165.216-8 1-1.211 1.1131-1.211 2.2798 0 3.5 1.608.8184 3.275 1.4851 5 2 1.083.865 1.249 1.865.5 3-.317-1.8008-.984-2.1341-2-1-.388-.928-1.055-1.5946-2-2-1.15.9239-2.15.9239-3 0-1.32 2.1544-3.153 3.6544-5.5 4.5 4 .6667 4 1.3333 0 2 1.017 1.0495 1.184 2.2161.5 3.5-1.644-4.3357-4.144-5.6691-7.5-4-.325-17.5769.008-35.0769 1-52.5 84.333-.5 168.666-.6667 253-.5.013 13.5033.346 27.5033 1 42 14.268.6726 27.934 1.0059 41 1Z"/>
    <path fill="#c3c3c3"
          d="M941.5 36.5c.965 13.6695 1.298 27.3362 1 41 14.208.9692 28.042 1.3025 41.5 1 .667 70 .667 140 0 210-13.758.824-27.592 1.324-41.5 1.5.298 13.4-.036 26.9-1 40.5-70.33 1-140.664 1.333-211 1 .167-13.671 0-27.337-.5-41-13.771-.659-27.604-1.325-41.5-2-.546-1.272-.879-2.606-1-4 .328-68.994.328-136.994 0-204-.047-1.5004.619-2.5004 2-3 13.502.9179 26.836 1.0846 40 .5.99-13.4208 1.323-26.9208 1-40.5 70.262-.9965 140.596-1.3298 211-1Zm-42 42v211h-126c0-.667-.333-1-1-1v-209c.761-.8909 1.761-1.5576 3-2 41.469.9855 82.802 1.3188 124 1Z"/>
    <path fill="#c3c3c3"
          d="M1010.5 36.5h83c-.33 42.17 0 84.17 1 126 42.33.167 84.67 0 127-.5.99-42.066 1.32-83.8998 1-125.5h83c.33 98.404 0 196.737-1 295h-82c.17-41.668 0-83.335-.5-125-.67-.752-1.5-1.086-2.5-1-9.62-1.468-19.29-1.801-29-1-.18-5.294-.68-5.294-1.5 0-3.94-1.098-8.11-1.265-12.5-.5-1.13-1.016-.8-1.683 1-2-1.33-.667-2.67-.667-4 0 .46.414.79.914 1 1.5-3.88 1.486-7.55 1.152-11-1-1.2.346-1.2.846 0 1.5-2 .667-4 .667-6 0 .72-2.122 1.89-2.622 3.5-1.5.67-1.667.67-3.333 0-5-1.05 1.607-2.55 2.273-4.5 2 .15 1.052-.02 2.052-.5 3-.71-1.473-1.88-2.14-3.5-2 .22-1.175-.11-2.175-1-3-1.01.438-1.01 1.104 0 2-1.2 1.638-2.54 1.971-4 1 .48-.978 1.14-1.811 2-2.5-1.5-.833-2.67-2-3.5-3.5-1.97 1.14-3.81 2.473-5.5 4-1.4-1.499-2.07-1.166-2 1 .54 1.241 1.2 2.408 2 3.5-.33.5-.67 1-1 1.5-.33-.667-.67-1.333-1-2-1.94 2.579-3.77 2.579-5.5 0-.33.667-.67 1.333-1 2-2.18.608-4.18-.059-6-2-3.05 2.901-5.05 2.234-6-2-1.62 1.036-1.78 2.203-.5 3.5-2.65.497-5.31.664-8 .5-.33-4-.67-4-1 0-2.89.458-5.39-.209-7.5-2-1.15 1.997-2.65 2.33-4.5 1 .67-1 1.33-2 2-3-.33-.333-.67-.667-1-1-1.38 1.82-2.38 3.82-3 6-1.99 41.653-2.66 83.653-2 126h-84v-295Z"/>
    <path fill="#c3c3c3"
          d="M1585.5 36.5c.67 13.7354 1.34 27.5687 2 41.5 14.14-.1269 27.64.0398 40.5.5.5 70.333.67 140.666.5 211h-42c.32 13.912-.01 27.746-1 41.5-70.33.5-140.67.667-211 .5.17-13.671 0-27.337-.5-41-13.75-.99-27.59-1.323-41.5-1-.33-70.67 0-141.336 1-212 13.29 1.1534 26.62 1.3201 40 .5.99-13.0872 1.32-26.2539 1-39.5 70.12-1.9916 140.45-2.6583 211-2Zm-168 42h126v211c-42.01.333-84.01 0-126-1-1.33-70.03-1.33-140.03 0-210Z"/>
    <path fill="#c3c3c3"
          d="M1950.5 38.5v260c-.69 10.901-1.35 21.901-2 33h-82c.33-84.336 0-168.669-1-253-41.96-1.1609-83.96-1.3275-126-.5-.56.3826-.89.8826-1 1.5-.75 1.031-1.42 2.1976-2 3.5.77 20.567 1.1 41.067 1 61.5-.17 5-.33 10-.5 15-.65-1.196-1.15-1.196-1.5 0 1.25 3.476 1.92 7.142 2 11-.44 22.316-.44 44.482 0 66.5.41 2.575-.59 4.242-3 5 1 .333 2 .667 3 1-.39 4.626-.39 9.46 0 14.5-.03 4.754-.7 9.254-2 13.5 1.32 9.772 1.99 19.772 2 30-.01 10.241-.34 20.408-1 30.5h-82v-294c49.26-.6644 98.6-.9977 148-1 49.54.0046 98.88.6713 148 2Z"/>
    <path fill="#c3c3c3"
          d="M2594.5 36.5v253c14.18-.329 28.18.004 42 1-1.1 1.653-1.27 3.32-.5 5-4.71 1.382-4.54 2.049.5 2-.44 9.218-.44 18.218 0 27-2.06.187-4.06.687-6 1.5 4.15.483 6.15 2.817 6 7-.89 3.225-.89 6.391 0 9.5-.21 1.494-.88 2.661-2 3.5.67.333 1.33.667 2 1 .05 4.632-.12 9.465-.5 14.5l-1.5 1.5c2.67 2 2.67 4 0 6 1.61 1.049 2.27 2.549 2 4.5h-83v-42c-57.17-.332-114.17.001-171 1v41h-83c.14-27.521.14-55.188 0-83h42v-85c14.08.315 28.08-.018 42-1 1-55.262 1.33-111.2618 1-168h210Zm-169 42h84v211h-84v-211Z"/>
    <path fill="#c3c3c3"
          d="M365.5 289.5v-201c3.356-1.6691 5.856-.3357 7.5 4 .684-1.2839.517-2.4505-.5-3.5 4-.6667 4-1.3333 0-2 2.347-.8456 4.18-2.3456 5.5-4.5.85.9239 1.85.9239 3 0 .945.4054 1.612 1.072 2 2 1.016-1.1341 1.683-.8008 2 1 .749-1.135.583-2.135-.5-3-1.725-.5149-3.392-1.1816-5-2-1.211-1.2202-1.211-2.3869 0-3.5 2.835-.784 5.501-1.1174 8-1 .444-1.5333.777-3.0333 1-4.5.787.7421 1.453 1.5754 2 2.5-1.333 1.8402-1.166 2.3402.5 1.5.743 1.9406.576 3.7739-.5 5.5 2.543.1397 4.877.8063 7 2-2.269-.3744-4.602-.3744-7 0 3.503.5382 4.336 2.0382 2.5 4.5-.333-.3333-.667-.6667-1-1-.903 1.2014-2.069 2.0348-3.5 2.5 2.693 2.9046 2.36 5.5713-1 8 1.623 2.0795 3.123 4.246 4.5 6.5.807-3.949 1.307-3.949 1.5 0 1.322.17 2.489-.163 3.5-1-.676 2.463-.509 4.63.5 6.5-.667.333-1.333.667-2 1 1.063 1.188 2.397 1.688 4 1.5-.262 1.478.071 2.811 1 4 .406-1.057.406-2.391 0-4 4.333-1.661 8.333-2.328 12-2 .333.667.667 1.333 1 2 .808-.308 1.475-.808 2-1.5-4.492-2.794-4.825-5.794-1-9-.858-1.57-1.525-3.2367-2-5 .837-4.1211 2.504-4.2878 5-.5 2.029-1.1293 2.363-.6293 1 1.5 1.771 2.1135 3.271 1.9468 4.5-.5 1.825 1.5076 3.825 3.508 6 6 .333-.667.667-1.333 1-2 .667 2 2 3.333 4 4 2-1.333 4-1.333 6 0 .308-.808.808-1.475 1.5-2 .544 2.691 1.877 5.357 4 8 .925-1.141 1.759-1.141 2.5 0 .333-1 .667-2 1-3 .168 32.169.668 64.169 1.5 96 41.928.994 83.928 1.327 126 1 .06.543.393.876 1 1 .993-4.62 1.327-9.286 1-14 .802 1.452 1.302 3.118 1.5 5 .333-1 .667-2 1-3 1.856 2.237 1.356 4.071-1.5 5.5 1.625.853 1.958 1.853 1 3 .971 1.204 1.971 1.704 3 1.5-.628 1.758-1.628 3.258-3 4.5 1.941 1.816 2.608 3.816 2 6-1.333.333-2.667.667-4 1 .928.388 1.595 1.055 2 2-2.456 1.976-2.623 4.143-.5 6.5.333-.667.667-1.333 1-2 3.108 1.955 2.941 3.788-.5 5.5l1.5 1.5c1.425-.712 2.925-.879 4.5-.5-2.275-2.882-1.609-3.215 2-1-1.913 1.791-3.58 3.791-5 6 2.964.84 3.297 1.84 1 3 2.7.949 3.533 2.783 2.5 5.5-2.256-1.883-3.923-4.217-5-7-1.334 2.003-2.834 3.503-4.5 4.5.667 1 1.333 2 2 3-.607 2.509-1.607 4.009-3 4.5-42.034-.849-84.034-.516-126 1 .167 27.669 0 55.335-.5 83-22.094.828-44.261 1.328-66.5 1.5-.99 14.088-1.324 28.255-1 42.5h-84v-42c.131-.739-.036-1.406-.5-2-43.105.688-86.272 1.021-129.5 1-3.767-.047-7.267-.714-10.5-2l-1.5 1.5c-9.479.216-18.813.383-28 .5-.996 13.823-1.329 27.823-1 42h-79c-1.4778.262-2.8112-.071-4-1 .3854-27.161.3854-54.495 0-82 12.8047-.239 25.6381.094 38.5 1 1.3024-.585 2.469-1.251 3.5-2v-84h42c.999-56.164 1.332-112.4975 1-169h210v254c9.42.332 18.086-.001 26-1Zm-110-211v211h-84v-211h84Z"/>
</svg>